<?xml version="1.0" encoding="UTF-8" standalone="no"?>
<svg
   version="1.0"
   width="600pt"
   height="600pt"
   viewBox="0 0 600 600"
   preserveAspectRatio="xMidYMid"
   id="svg66"
   xmlns:xlink="http://www.w3.org/1999/xlink"
   xmlns="http://www.w3.org/2000/svg"
   xmlns:svg="http://www.w3.org/2000/svg">
  <defs
     id="defs70">
    <linearGradient
       id="linearGradient1094">
      <stop
         style="stop-color:#293b4c;stop-opacity:1;"
         offset="0"
         id="stop1090" />
      <stop
         style="stop-color:#293b4c;stop-opacity:0.76515079;"
         offset="1"
         id="stop1092" />
    </linearGradient>
    <linearGradient
       id="linearGradient1030">
      <stop
         style="stop-color:#00c8c8;stop-opacity:1;"
         offset="0"
         id="stop1026" />
      <stop
         style="stop-color:#07ffff;stop-opacity:0.15145479;"
         offset="1"
         id="stop1028" />
    </linearGradient>
    <linearGradient
       xlink:href="#linearGradient1030"
       id="linearGradient1032"
       x1="526"
       y1="3006.5"
       x2="5901.8345"
       y2="1262.5026"
       gradientUnits="userSpaceOnUse" />
    <linearGradient
       xlink:href="#linearGradient1094"
       id="linearGradient1096"
       x1="0"
       y1="3000"
       x2="6015.0317"
       y2="5.9154921"
       gradientUnits="userSpaceOnUse" />
  </defs>
  <g
     transform="matrix(0.1,0,0,-0.1,0,600)"
     fill="#000000"
     stroke="none"
     id="g64">
    <path
       d="m 0,3000 v -3.2493 A 2996.7507,2996.7507 135 0 1 2996.7507,0 H 3000 3012.8282 A 2987.1718,2987.1718 45 0 1 6000,2987.1718 V 3000 v 4.0721 A 2995.9279,2995.9279 135 0 1 3004.0721,6000 H 3000 2995.2918 A 2995.2918,2995.2918 45 0 1 0,3004.7082 Z m 3057,2800 h 33 l -16,-25 c -14,-22 -15,-30 -4,-50 19,-36 71,-35 95,2 l 17,26 17,-26 c 12,-21 24,-27 49,-27 h 33 l -17,-32 c -15,-29 -15,-33 0,-60 l 17,-28 h -35 c -45,0 -65,-30 -45,-66 9,-18 21,-24 46,-24 h 34 l -17,-31 c -13,-26 -14,-36 -3,-55 18,-34 61,-32 84,3 l 17,26 17,-26 c 34,-56 117,-14 85,44 -19,35 -17,39 15,39 20,0 34,8 46,27 l 17,26 17,-26 c 12,-21 24,-27 49,-27 h 33 l -17,-31 c -13,-26 -14,-36 -3,-55 18,-34 61,-32 84,3 l 17,26 17,-26 c 12,-22 23,-27 54,-27 h 37 l -16,-26 c -16,-23 -16,-28 -1,-60 l 17,-34 h -40 c -49,0 -70,-28 -49,-66 10,-19 21,-24 51,-24 h 38 l -16,-26 c -16,-23 -16,-28 -1,-60 l 17,-34 h -40 c -32,0 -42,-5 -53,-26 l -14,-26 -16,26 c -23,35 -73,36 -88,2 -9,-19 -7,-29 6,-50 l 17,-26 h -35 c -47,0 -65,-28 -47,-71 10,-24 18,-29 46,-29 h 34 l -16,-25 c -14,-22 -15,-30 -4,-50 19,-35 62,-34 85,2 l 17,26 17,-26 c 12,-22 23,-27 54,-27 h 38 l -17,-32 c -15,-29 -15,-33 0,-60 l 17,-28 h -40 c -50,0 -71,-28 -50,-66 10,-19 21,-24 51,-24 h 39 l -17,-31 c -13,-26 -14,-36 -3,-55 18,-34 61,-32 84,3 l 17,26 17,-26 c 34,-56 117,-14 85,44 -19,35 -17,39 15,39 20,0 34,8 46,27 l 17,26 17,-26 c 12,-21 24,-27 49,-27 h 33 l -17,-31 c -13,-26 -14,-36 -3,-55 18,-34 61,-32 84,3 l 17,26 17,-26 c 34,-56 117,-14 85,44 -19,35 -18,39 20,39 24,0 38,6 49,24 23,34 -1,66 -49,66 -37,0 -41,6 -20,35 12,17 12,23 0,47 -19,37 -19,38 20,38 25,0 38,6 51,27 l 17,26 17,-26 c 21,-35 63,-36 84,-3 14,20 14,26 2,42 -21,28 -18,34 15,34 23,0 33,7 46,32 l 17,33 15,-33 c 13,-27 21,-32 49,-32 h 33 l -16,-25 c -14,-22 -15,-30 -4,-50 19,-35 62,-34 85,2 l 17,26 17,-26 c 12,-21 24,-27 49,-27 h 33 l -17,-32 c -15,-29 -15,-33 0,-60 l 17,-28 h -35 c -45,0 -65,-30 -45,-66 9,-18 21,-24 46,-24 h 34 l -17,-31 c -13,-26 -14,-36 -3,-55 18,-34 61,-32 84,3 l 17,26 17,-26 c 35,-58 128,-16 95,44 -19,35 -17,39 15,39 20,0 34,8 46,27 l 17,26 17,-26 c 12,-21 24,-27 49,-27 h 33 l -17,-31 c -13,-26 -14,-36 -3,-55 18,-34 61,-32 84,3 l 17,26 17,-26 c 12,-21 24,-27 49,-27 h 32 l -16,-26 c -16,-23 -16,-28 -1,-60 l 17,-34 h -35 c -44,0 -64,-30 -44,-66 9,-18 21,-24 46,-24 h 33 l -16,-26 c -16,-23 -16,-28 -1,-60 l 17,-34 h -35 c -27,0 -37,-6 -48,-26 l -14,-26 -16,26 c -23,35 -73,36 -88,2 -9,-19 -7,-29 6,-50 l 17,-26 h -35 c -47,0 -65,-28 -47,-71 10,-24 18,-29 46,-29 h 34 l -16,-25 c -14,-22 -15,-30 -4,-50 19,-35 62,-34 85,2 l 17,26 17,-26 c 12,-21 24,-27 49,-27 h 33 l -17,-32 c -15,-29 -15,-33 0,-60 l 17,-28 h -35 c -45,0 -65,-30 -45,-66 9,-18 21,-24 46,-24 h 34 l -17,-32 c -15,-29 -15,-33 0,-60 l 17,-28 h -35 c -28,0 -38,-5 -49,-26 l -14,-26 -16,26 c -23,35 -73,36 -88,2 -9,-18 -7,-30 5,-55 l 17,-31 h -35 c -28,0 -38,-6 -49,-26 l -14,-26 -16,26 c -12,18 -26,26 -47,26 -34,0 -35,1 -16,39 13,25 13,31 0,50 -23,32 -79,29 -97,-5 l -14,-26 -16,26 c -23,35 -73,36 -88,2 -9,-18 -7,-30 5,-55 l 17,-31 h -35 c -45,0 -65,-30 -45,-66 9,-18 21,-24 46,-24 h 33 l -16,-26 c -16,-23 -16,-28 -1,-60 l 17,-34 h -35 c -27,0 -37,-6 -48,-26 l -14,-26 -16,26 c -23,35 -73,36 -88,2 -9,-19 -7,-29 6,-50 l 17,-26 h -35 c -47,0 -65,-28 -47,-71 10,-24 18,-29 46,-29 h 34 l -16,-25 c -14,-22 -15,-30 -4,-50 19,-35 62,-34 85,2 l 17,26 17,-26 c 12,-21 24,-27 49,-27 h 33 l -17,-32 c -15,-29 -15,-33 0,-60 l 17,-28 h -35 c -45,0 -65,-30 -45,-66 9,-18 21,-24 46,-24 h 34 l -17,-31 c -13,-26 -14,-36 -3,-55 18,-34 61,-32 84,3 l 17,26 17,-26 c 35,-58 128,-16 95,44 -19,35 -17,39 15,39 20,0 34,8 46,27 l 17,26 17,-26 c 12,-21 24,-27 49,-27 h 33 l -17,-31 c -13,-26 -14,-36 -3,-55 18,-34 61,-32 84,3 l 17,26 17,-26 c 12,-21 24,-27 49,-27 h 32 l -16,-26 c -16,-23 -16,-28 -1,-60 l 17,-34 h -35 c -44,0 -64,-30 -44,-66 9,-18 21,-24 46,-24 h 33 l -16,-26 c -16,-23 -16,-28 -1,-60 l 17,-34 h -35 c -27,0 -37,-6 -48,-26 l -14,-26 -16,26 c -23,35 -73,36 -88,2 -9,-19 -7,-29 6,-50 l 17,-26 h -35 c -47,0 -65,-28 -47,-71 10,-24 18,-29 46,-29 h 34 l -16,-25 c -14,-22 -15,-30 -4,-50 19,-35 62,-34 85,2 l 17,26 17,-26 c 12,-21 24,-27 49,-27 h 33 l -17,-32 c -15,-29 -15,-33 0,-60 l 17,-28 h -35 c -45,0 -65,-30 -45,-66 9,-18 21,-24 46,-24 h 34 l -17,-32 c -15,-29 -15,-33 0,-60 l 17,-28 h -35 c -28,0 -38,-5 -49,-26 l -14,-26 -16,26 c -23,35 -73,36 -88,2 -9,-18 -7,-30 5,-55 l 17,-31 h -35 c -28,0 -38,-6 -49,-26 l -14,-26 -16,26 c -12,18 -26,26 -47,26 -34,0 -35,1 -16,39 13,25 13,31 0,50 -23,32 -79,29 -97,-5 l -14,-26 -16,26 c -23,35 -73,36 -88,2 -9,-18 -7,-30 5,-55 l 17,-31 h -35 c -45,0 -65,-30 -45,-66 9,-18 21,-24 46,-24 h 33 l -16,-26 c -16,-23 -16,-28 -1,-60 l 17,-34 h -35 c -27,0 -37,-6 -48,-26 l -14,-26 -16,26 c -23,35 -73,36 -88,2 -9,-19 -7,-29 6,-50 l 17,-26 h -36 c -28,0 -38,-5 -49,-26 l -14,-26 -16,26 c -12,18 -26,26 -47,26 -34,0 -36,6 -15,36 12,18 12,24 -1,42 -22,32 -69,29 -87,-4 l -14,-26 -16,26 c -13,20 -26,26 -52,26 -40,0 -40,1 -20,39 12,25 12,31 0,47 -21,28 -18,34 19,34 24,0 38,6 49,24 23,34 -1,66 -49,66 -39,0 -39,1 -20,39 13,25 13,31 0,50 -22,31 -69,28 -87,-5 l -14,-26 -16,26 c -23,35 -73,36 -88,2 -9,-18 -7,-30 5,-55 l 17,-31 h -35 c -28,0 -38,-6 -49,-26 l -14,-26 -16,26 c -12,18 -26,26 -47,26 -34,0 -35,1 -16,39 13,25 13,31 0,50 -22,31 -69,28 -87,-5 l -14,-26 -16,26 c -23,35 -73,36 -88,2 -9,-18 -7,-30 5,-55 l 17,-31 h -40 c -50,0 -71,-28 -50,-66 10,-19 21,-24 51,-24 h 38 l -16,-26 c -16,-23 -16,-28 -1,-60 l 17,-34 h -40 c -32,0 -42,-5 -53,-26 l -14,-26 -16,26 c -23,35 -73,36 -88,2 -9,-19 -7,-29 6,-50 l 17,-26 h -35 c -47,0 -65,-28 -47,-71 10,-24 18,-29 46,-29 h 34 l -16,-25 c -14,-22 -15,-30 -4,-50 19,-35 62,-34 85,2 l 17,26 17,-26 c 12,-22 23,-27 54,-27 h 38 l -17,-32 c -15,-29 -15,-33 0,-60 l 17,-28 h -40 c -50,0 -71,-28 -50,-66 10,-19 21,-24 51,-24 h 39 l -17,-32 c -15,-29 -15,-33 0,-60 l 17,-28 h -40 c -33,0 -43,-5 -54,-26 l -14,-26 -16,26 c -23,35 -73,36 -88,2 -9,-18 -7,-30 5,-55 l 17,-31 h -35 c -28,0 -38,-6 -49,-26 l -14,-26 -16,26 c -12,18 -26,26 -47,26 -34,0 -35,1 -16,39 13,25 13,31 0,50 -22,31 -69,28 -87,-5 l -14,-26 -16,26 c -23,35 -73,36 -88,2 -9,-18 -7,-30 5,-55 l 17,-31 h -35 c -45,0 -65,-30 -45,-66 9,-18 21,-24 46,-24 h 33 l -16,-26 c -16,-23 -16,-28 -1,-60 l 17,-34 h -35 c -27,0 -37,-6 -48,-26 l -14,-26 -16,26 c -24,36 -82,37 -98,2 -9,-19 -7,-29 6,-50 l 17,-26 h -36 c -28,0 -38,-5 -49,-26 l -14,-26 -16,26 c -12,18 -26,26 -47,26 -34,0 -36,6 -15,36 12,18 12,24 -1,42 -22,32 -69,29 -87,-4 l -14,-26 -16,26 c -12,18 -26,26 -47,26 -34,0 -35,1 -15,39 12,25 12,31 0,47 -21,28 -18,34 14,34 19,0 34,8 44,24 14,21 14,26 1,45 -10,13 -26,21 -45,21 -33,0 -34,1 -15,39 13,25 13,31 0,50 -22,31 -69,28 -87,-5 l -14,-26 -16,26 c -23,35 -73,36 -88,2 -9,-18 -7,-30 5,-55 l 17,-31 h -35 c -25,0 -40,-7 -54,-25 l -20,-25 -16,25 c -11,17 -26,25 -46,25 -34,0 -35,1 -16,39 13,25 13,31 0,50 -22,31 -69,28 -87,-5 l -14,-26 -16,26 c -12,18 -26,26 -47,26 -33,0 -37,7 -16,35 12,17 12,23 0,47 -19,36 -18,38 15,38 19,0 34,8 44,24 14,21 14,26 1,45 -10,13 -26,21 -45,21 -32,0 -36,7 -15,35 12,17 12,23 0,47 -19,36 -18,38 15,38 20,0 34,8 46,27 l 17,26 17,-26 c 21,-35 63,-36 84,-3 14,20 14,26 2,42 -21,28 -18,34 15,34 22,0 33,7 44,29 13,25 13,31 0,50 -10,13 -26,21 -45,21 -33,0 -35,6 -14,36 12,18 12,24 -1,42 -22,32 -69,29 -87,-4 l -14,-26 -16,26 c -12,18 -26,26 -47,26 -34,0 -35,1 -15,39 12,25 12,31 0,47 -21,28 -18,34 14,34 19,0 34,8 44,24 14,21 14,26 1,45 -10,13 -26,21 -45,21 -33,0 -34,1 -15,39 13,25 13,31 0,50 -22,31 -69,28 -87,-5 l -14,-26 -16,26 c -23,35 -73,36 -88,2 -9,-18 -7,-30 5,-55 l 17,-31 h -35 c -28,0 -38,-6 -49,-26 l -14,-26 -16,26 c -13,20 -26,26 -52,26 -40,0 -42,3 -16,39 18,25 18,27 1,49 -26,32 -75,30 -93,-4 l -14,-26 -16,26 c -23,35 -73,36 -88,2 -9,-18 -7,-30 5,-55 l 17,-31 h -35 c -45,0 -65,-30 -45,-66 9,-18 21,-24 46,-24 h 33 l -16,-26 c -16,-23 -16,-28 -1,-60 l 17,-34 h -35 c -27,0 -37,-6 -48,-26 l -14,-26 -16,26 c -23,35 -73,36 -88,2 -9,-19 -7,-29 6,-50 l 17,-26 h -36 c -28,0 -38,-5 -49,-26 l -14,-26 -16,26 c -12,18 -26,26 -47,26 -34,0 -36,6 -15,36 12,18 12,24 -1,42 -21,31 -67,29 -92,-3 l -20,-25 -16,25 c -11,17 -26,25 -46,25 -34,0 -35,1 -15,39 12,25 12,31 0,47 -21,28 -18,34 14,34 19,0 34,8 44,24 14,21 14,26 1,45 -10,13 -26,21 -45,21 -33,0 -34,1 -15,39 13,25 13,31 0,50 -22,31 -69,28 -87,-5 l -14,-26 -16,26 c -23,35 -73,36 -88,2 -9,-18 -7,-30 5,-55 l 17,-31 h -35 c -28,0 -38,-6 -49,-26 l -14,-26 -16,26 c -12,18 -26,26 -47,26 -34,0 -35,1 -16,39 13,25 13,31 0,50 -22,31 -69,28 -87,-5 l -14,-26 -16,26 c -12,18 -26,26 -47,26 -33,0 -37,7 -16,35 12,17 12,23 0,47 -19,36 -18,38 15,38 19,0 34,8 44,24 14,21 14,26 1,45 -10,13 -26,21 -45,21 -32,0 -36,7 -15,35 12,17 12,23 0,47 -19,36 -18,38 15,38 20,0 34,8 46,27 l 17,26 17,-26 c 21,-35 63,-36 84,-3 14,20 14,26 2,42 -21,28 -18,34 15,34 22,0 33,7 44,29 13,25 13,31 0,50 -10,13 -26,21 -45,21 -33,0 -35,6 -14,36 12,18 12,24 -1,42 -22,32 -69,29 -87,-4 l -14,-26 -16,26 c -12,18 -26,26 -47,26 -34,0 -35,4 -16,40 12,22 12,27 -6,50 l -20,25 35,3 c 78,7 79,92 1,92 -39,0 -41,5 -15,40 19,24 19,25 -1,50 l -20,25 33,3 c 22,2 42,13 54,29 l 21,25 13,-26 c 19,-34 62,-35 84,-3 13,20 13,27 1,48 -19,35 -17,39 15,39 20,0 34,8 46,27 l 17,26 17,-26 c 12,-21 24,-27 49,-27 h 33 l -17,-31 c -13,-26 -14,-36 -3,-55 18,-34 61,-32 84,3 l 17,26 17,-26 c 34,-56 117,-14 85,44 -19,35 -17,39 15,39 19,0 34,8 44,24 14,21 14,26 1,45 -10,13 -26,21 -45,21 -32,0 -36,7 -15,35 12,17 12,23 0,47 -19,36 -18,38 15,38 20,0 34,8 46,27 l 18,26 19,-26 c 26,-35 69,-37 91,-3 14,20 14,26 2,42 -21,28 -18,34 15,34 22,0 33,7 44,29 13,25 13,31 0,50 -10,13 -26,21 -45,21 -33,0 -35,6 -14,36 12,18 12,24 -1,42 -21,31 -67,29 -92,-3 l -20,-25 -16,25 c -11,17 -26,25 -46,25 -34,0 -35,1 -15,39 12,25 12,31 0,47 -21,28 -18,34 14,34 19,0 34,8 44,24 14,21 14,26 1,45 -10,13 -26,21 -45,21 -33,0 -34,1 -15,39 13,25 13,31 0,50 -22,31 -69,28 -87,-5 l -14,-26 -16,26 c -23,35 -73,36 -88,2 -9,-18 -7,-30 5,-55 l 17,-31 h -35 c -28,0 -38,-6 -49,-26 l -14,-26 -16,26 c -12,18 -26,26 -47,26 -34,0 -35,1 -16,39 13,25 13,31 0,50 -22,31 -69,28 -87,-5 l -14,-26 -16,26 c -13,20 -26,26 -52,26 -40,0 -44,9 -15,35 19,18 19,18 0,45 -27,37 -26,40 14,40 24,0 38,6 49,24 23,34 -1,66 -49,66 -39,0 -43,9 -14,35 19,18 19,18 0,45 -27,37 -26,40 14,40 25,0 38,6 51,27 l 17,26 17,-26 c 21,-35 63,-36 84,-3 14,20 14,26 2,42 -21,28 -18,34 15,34 22,0 33,7 44,29 13,25 13,31 0,50 -10,13 -26,21 -45,21 -33,0 -35,6 -14,36 12,18 12,24 -1,42 -22,32 -69,29 -87,-4 l -14,-26 -16,26 c -13,20 -26,26 -52,26 -40,0 -42,5 -16,40 19,24 19,25 -1,50 l -20,25 35,3 c 78,7 79,92 1,92 -39,0 -41,5 -15,40 19,24 19,25 -1,50 l -20,25 33,3 c 22,2 42,13 54,29 l 21,25 13,-26 c 19,-34 62,-35 84,-3 13,20 13,27 1,48 -19,35 -17,39 15,39 20,0 34,8 46,27 l 17,26 17,-26 c 12,-21 24,-27 49,-27 h 33 l -17,-31 c -13,-26 -14,-36 -3,-55 18,-34 61,-32 84,3 l 17,26 17,-26 c 34,-56 117,-14 85,44 -19,35 -17,39 15,39 19,0 34,8 44,24 14,21 14,26 1,45 -10,13 -26,21 -45,21 -32,0 -36,7 -15,35 12,17 12,23 0,47 -19,36 -18,38 15,38 20,0 34,8 46,27 l 18,26 19,-26 c 26,-35 69,-37 91,-3 14,20 14,26 2,42 -21,28 -18,34 15,34 23,0 33,7 46,32 l 17,33 15,-33 c 13,-27 21,-32 49,-32 h 33 l -16,-25 c -14,-22 -15,-30 -4,-50 19,-35 62,-34 85,2 l 17,26 17,-26 c 12,-21 24,-27 49,-27 h 33 l -17,-32 c -15,-29 -15,-33 0,-60 l 17,-28 h -35 c -45,0 -65,-30 -45,-66 9,-18 21,-24 46,-24 h 34 l -17,-31 c -13,-26 -14,-36 -3,-55 18,-34 61,-32 84,3 l 17,26 17,-26 c 20,-34 59,-36 89,-4 21,22 21,22 2,47 -27,35 -25,40 14,40 25,0 38,6 51,27 l 17,26 17,-26 c 12,-21 24,-27 49,-27 h 33 l -17,-31 c -13,-26 -14,-36 -3,-55 18,-34 61,-32 84,3 l 17,26 17,-26 c 34,-56 117,-14 85,44 -19,35 -17,39 15,39 19,0 34,8 44,24 14,21 14,26 1,45 -10,13 -26,21 -45,21 -32,0 -36,7 -15,35 12,17 12,23 0,47 -19,36 -18,38 15,38 20,0 34,8 46,27 l 17,26 17,-26 c 21,-35 63,-36 84,-3 14,20 14,26 2,42 -21,28 -18,34 15,34 22,0 33,7 44,29 13,25 13,31 0,50 -10,13 -26,21 -45,21 -33,0 -35,6 -14,36 12,18 12,24 -1,42 -22,32 -69,29 -87,-4 l -14,-26 -16,26 c -12,18 -26,26 -47,26 -34,0 -35,1 -15,39 12,25 12,31 0,47 -21,28 -18,34 14,34 19,0 34,8 44,24 14,21 14,26 1,45 -10,13 -26,21 -45,21 -33,0 -34,1 -14,39 12,25 12,31 0,47 -21,28 -18,34 14,34 20,0 34,8 46,27 l 17,26 17,-26 c 34,-56 117,-14 85,44 -19,35 -17,39 15,39 20,0 34,8 46,27 l 18,26 19,-26 c 15,-20 28,-27 54,-27 h 35 l -17,-31 c -13,-26 -14,-36 -3,-55 18,-34 61,-32 84,3 l 17,26 17,-26 c 34,-56 117,-14 85,44 -19,35 -17,39 15,39 19,0 34,8 44,24 14,21 14,26 1,45 -10,13 -26,21 -45,21 -32,0 -36,7 -15,35 12,17 12,23 0,47 -19,36 -18,38 15,38 20,0 34,8 46,27 l 17,26 17,-26 c 21,-35 63,-36 84,-3 14,20 14,26 2,42 -21,28 -18,34 15,34 23,0 33,7 46,32 l 17,33 15,-33 c 13,-27 21,-32 49,-32 z"
       id="path60"
       style="fill:url(#linearGradient1096);fill-opacity:1" />
    <path
       d="m 2979,5817 c -9,-20 -19,-27 -41,-27 -28,0 -28,-1 -15,-21 13,-18 13,-24 -1,-50 -21,-36 -75,-41 -92,-9 -6,11 -15,20 -20,20 -5,0 -12,-9 -15,-20 -4,-14 -15,-20 -36,-20 -29,0 -29,-1 -15,-27 12,-24 12,-30 -1,-50 -15,-22 -14,-23 14,-23 20,0 33,-8 44,-26 15,-25 15,-29 0,-55 -11,-21 -24,-29 -44,-29 -27,0 -27,-1 -14,-27 12,-23 12,-30 -2,-55 -20,-35 -74,-40 -91,-8 -6,11 -15,20 -20,20 -5,0 -12,-9 -15,-20 -5,-15 -15,-20 -40,-20 -43,0 -73,40 -56,77 15,32 15,33 -13,33 -15,0 -33,11 -45,26 l -20,26 -12,-26 c -9,-19 -20,-26 -41,-26 -28,0 -28,-1 -15,-27 12,-23 12,-30 -2,-55 -20,-35 -74,-40 -91,-8 -6,11 -15,20 -20,20 -5,0 -12,-9 -15,-20 -4,-14 -15,-20 -36,-20 -29,0 -29,-1 -15,-21 13,-19 13,-25 0,-50 -14,-29 -14,-29 13,-29 20,0 33,-8 44,-26 15,-25 15,-29 0,-55 -12,-21 -24,-29 -44,-29 -27,0 -27,-1 -13,-21 13,-19 13,-25 0,-50 -14,-29 -14,-29 13,-29 18,0 33,-8 41,-21 l 14,-21 14,21 c 23,32 75,29 96,-6 14,-24 14,-29 1,-50 -15,-22 -14,-23 14,-23 20,0 33,-8 45,-27 15,-24 15,-29 0,-60 -12,-26 -22,-33 -44,-33 -28,0 -28,-1 -15,-21 13,-18 13,-24 -1,-50 -21,-36 -75,-41 -92,-9 -6,11 -15,20 -20,20 -5,0 -12,-9 -15,-20 -4,-14 -15,-20 -36,-20 -29,0 -29,-1 -15,-27 12,-24 12,-30 -1,-50 -15,-22 -14,-23 14,-23 20,0 33,-8 44,-26 15,-25 15,-29 0,-55 -11,-21 -24,-29 -44,-29 -27,0 -27,-1 -14,-27 12,-23 12,-30 -2,-55 -20,-35 -74,-40 -91,-8 -6,11 -15,20 -20,20 -5,0 -12,-9 -15,-20 -5,-15 -15,-20 -40,-20 -43,0 -73,40 -56,77 15,32 15,33 -14,33 -14,0 -29,8 -35,20 -14,25 -27,25 -35,0 -5,-15 -15,-20 -41,-20 h -35 l 19,-28 20,-27 -24,-28 c -29,-33 -78,-37 -94,-7 -6,11 -15,20 -20,20 -5,0 -12,-9 -15,-20 -5,-15 -15,-20 -40,-20 -43,0 -73,40 -56,77 15,32 15,31 -15,35 -15,2 -32,14 -41,30 -15,24 -15,28 0,52 11,16 27,26 42,26 27,0 32,9 13,28 -9,9 -9,18 0,37 16,35 16,35 -13,35 -14,0 -29,8 -35,20 -6,11 -15,20 -20,20 -5,0 -12,-9 -15,-20 -5,-15 -15,-20 -40,-20 -43,0 -73,40 -56,76 10,22 8,24 -14,24 -16,0 -29,9 -39,27 l -14,28 -13,-28 c -9,-20 -19,-27 -41,-27 -28,0 -28,-1 -15,-21 13,-18 13,-24 -1,-50 -23,-39 -71,-41 -101,-3 l -20,26 -12,-26 c -9,-19 -20,-26 -41,-26 -28,0 -28,-1 -14,-27 12,-24 12,-30 -1,-50 -15,-22 -14,-23 14,-23 20,0 33,-8 44,-26 15,-25 15,-29 0,-55 -11,-21 -24,-29 -44,-29 -27,0 -27,-1 -14,-27 12,-23 12,-30 -2,-55 -20,-35 -74,-40 -91,-8 -6,11 -15,20 -20,20 -5,0 -12,-9 -15,-20 -5,-15 -15,-20 -40,-20 -43,0 -73,40 -56,77 15,32 15,33 -14,33 -14,0 -29,8 -35,20 -6,11 -15,20 -20,20 -5,0 -12,-9 -15,-20 -4,-14 -15,-20 -36,-20 -29,0 -29,-1 -16,-27 12,-23 12,-30 -2,-55 -20,-35 -74,-40 -91,-8 -6,11 -15,20 -20,20 -5,0 -12,-9 -15,-20 -4,-14 -15,-20 -36,-20 -32,0 -37,-11 -14,-30 13,-11 12,-16 -6,-41 l -20,-29 h 33 c 25,0 37,-6 49,-26 15,-25 15,-29 0,-55 -11,-21 -24,-29 -43,-29 -31,0 -36,-11 -13,-30 13,-11 12,-16 -6,-41 l -20,-29 h 33 c 23,0 37,-7 46,-21 l 14,-21 14,21 c 23,32 75,29 96,-6 14,-24 14,-29 1,-50 -15,-22 -14,-23 14,-23 20,0 33,-8 45,-27 15,-24 15,-29 0,-60 -12,-26 -22,-33 -44,-33 -28,0 -28,-1 -15,-21 13,-18 13,-24 -1,-50 -21,-36 -75,-41 -92,-9 -6,11 -15,20 -20,20 -5,0 -12,-9 -15,-20 -5,-15 -15,-20 -41,-20 h -35 l 20,-28 20,-29 -22,-21 -21,-22 h 34 c 27,0 39,-6 51,-26 15,-25 15,-29 0,-55 -12,-23 -23,-29 -49,-29 h -33 l 20,-28 20,-29 -22,-21 -21,-22 h 34 c 25,0 39,-6 48,-21 l 14,-21 14,21 c 23,32 75,29 96,-7 14,-24 15,-30 2,-55 -14,-26 -14,-27 13,-27 18,0 33,-8 41,-21 l 14,-21 14,21 c 9,12 26,21 40,21 28,0 28,1 13,34 -27,58 66,109 99,55 l 14,-21 14,21 c 23,32 75,29 96,-7 14,-24 15,-30 2,-55 -14,-26 -14,-27 13,-27 20,0 33,-8 44,-26 15,-25 15,-29 0,-55 -12,-21 -24,-29 -44,-29 -27,0 -27,-1 -13,-21 13,-19 13,-25 0,-50 -14,-29 -14,-29 13,-29 18,0 33,-8 41,-21 l 13,-21 23,21 c 32,30 77,28 98,-6 14,-24 14,-29 1,-50 -15,-22 -14,-23 14,-23 20,0 33,-8 45,-27 15,-24 15,-29 0,-60 -12,-26 -22,-33 -44,-33 -28,0 -28,-1 -15,-21 13,-18 13,-24 -1,-50 -23,-39 -71,-41 -101,-3 l -20,26 -12,-26 c -9,-19 -20,-26 -41,-26 -28,0 -28,-1 -14,-27 12,-24 12,-30 -1,-50 -15,-22 -14,-23 14,-23 20,0 33,-8 44,-26 15,-25 15,-29 0,-55 -11,-21 -24,-29 -44,-29 -27,0 -27,-1 -14,-27 12,-23 12,-30 -2,-55 -20,-35 -74,-40 -91,-8 -14,25 -27,25 -35,0 -5,-15 -15,-20 -40,-20 -43,0 -73,40 -56,77 15,32 15,33 -14,33 -14,0 -29,8 -35,20 -6,11 -15,20 -20,20 -5,0 -12,-9 -15,-20 -4,-14 -15,-20 -36,-20 -29,0 -29,-1 -16,-27 12,-23 12,-30 -2,-55 -20,-35 -74,-40 -91,-8 -14,25 -27,25 -35,0 -4,-14 -15,-20 -36,-20 -32,0 -37,-11 -14,-30 13,-11 12,-16 -6,-41 l -20,-29 h 33 c 25,0 37,-6 49,-26 15,-25 15,-29 0,-55 -11,-21 -24,-29 -43,-29 -31,0 -36,-11 -13,-30 13,-11 13,-15 -1,-41 -14,-29 -14,-29 13,-29 18,0 33,-8 41,-21 l 14,-21 14,21 c 23,32 75,29 96,-6 14,-24 14,-29 1,-50 -15,-22 -14,-23 14,-23 20,0 33,-8 45,-27 15,-24 15,-29 0,-60 -12,-26 -22,-33 -44,-33 -28,0 -28,-1 -15,-21 13,-18 13,-24 -1,-50 -21,-36 -75,-41 -92,-9 -14,25 -27,25 -35,0 -4,-14 -15,-20 -36,-20 -29,0 -29,-1 -15,-27 12,-24 12,-30 -1,-50 -15,-22 -14,-23 14,-23 20,0 33,-8 44,-26 15,-25 15,-29 0,-55 -11,-21 -24,-29 -44,-29 -27,0 -27,-1 -13,-27 12,-24 12,-30 -1,-50 -15,-22 -14,-23 13,-23 19,0 34,-8 42,-21 l 14,-21 14,21 c 23,32 75,29 96,-7 14,-24 15,-30 2,-55 -14,-26 -14,-27 13,-27 18,0 33,-8 41,-21 l 14,-21 14,21 c 9,12 26,21 40,21 28,0 28,1 13,34 -27,58 66,109 99,55 l 14,-21 14,21 c 23,32 75,29 96,-7 14,-24 15,-30 2,-55 -14,-26 -14,-27 13,-27 20,0 33,-8 44,-26 15,-25 15,-29 0,-55 -12,-21 -24,-29 -44,-29 -27,0 -27,-1 -13,-21 13,-19 13,-25 0,-50 -14,-29 -14,-29 13,-29 18,0 33,-8 41,-21 l 13,-21 23,21 c 32,30 77,28 98,-6 14,-24 14,-29 1,-50 -15,-22 -14,-23 13,-23 19,0 34,-8 42,-21 l 14,-21 14,21 c 9,12 26,21 40,21 27,0 29,3 12,29 -9,15 -8,24 5,45 22,34 76,36 95,5 l 14,-21 14,21 c 9,12 26,21 40,21 28,0 28,1 13,33 -8,18 -8,30 0,45 10,18 8,21 -15,24 -15,2 -32,14 -41,30 -15,24 -15,28 0,52 11,16 27,26 42,26 29,0 29,1 14,34 -27,58 66,109 99,55 l 14,-21 14,21 c 22,31 73,28 100,-6 22,-28 22,-28 2,-55 l -19,-28 h 33 c 23,0 37,-7 46,-21 l 14,-21 14,21 c 9,12 26,21 40,21 28,0 28,1 13,34 -27,58 66,109 99,55 l 14,-21 14,21 c 23,32 75,29 96,-7 14,-24 15,-30 2,-55 -14,-26 -14,-27 13,-27 20,0 33,-8 44,-26 15,-25 15,-29 0,-55 -12,-21 -24,-29 -44,-29 -27,0 -27,-1 -13,-21 13,-19 13,-25 0,-50 -14,-29 -14,-29 13,-29 18,0 33,-8 41,-21 l 14,-21 14,21 c 23,32 75,29 96,-6 14,-24 14,-29 1,-50 -15,-22 -14,-23 14,-23 20,0 33,-8 45,-27 15,-24 15,-29 0,-60 -12,-26 -22,-33 -44,-33 -28,0 -28,-1 -15,-21 13,-18 13,-24 -1,-50 -21,-36 -75,-41 -92,-9 -14,25 -27,25 -35,0 -4,-14 -15,-20 -36,-20 -29,0 -29,-1 -15,-27 12,-24 12,-30 -1,-50 -15,-22 -14,-23 14,-23 20,0 33,-8 44,-26 15,-25 15,-29 0,-55 -11,-21 -24,-29 -44,-29 -27,0 -27,-1 -13,-27 12,-24 12,-30 -1,-50 -15,-22 -14,-23 13,-23 19,0 34,-8 42,-21 l 14,-21 14,21 c 23,32 75,29 96,-7 14,-24 15,-30 2,-55 -14,-26 -14,-27 13,-27 18,0 33,-8 41,-21 l 13,-21 23,21 c 12,12 32,21 44,21 25,0 26,1 11,34 -27,58 66,109 99,55 l 14,-21 14,21 c 23,32 75,29 96,-7 14,-24 15,-30 2,-55 -14,-26 -14,-27 13,-27 20,0 33,-8 44,-26 15,-25 15,-29 0,-55 -12,-21 -24,-29 -44,-29 -27,0 -27,-1 -13,-21 13,-19 13,-25 0,-50 -14,-29 -14,-29 13,-29 18,0 33,-8 41,-21 l 14,-21 14,21 c 23,32 75,29 96,-6 14,-24 14,-29 1,-50 -15,-22 -14,-23 13,-23 19,0 34,-8 42,-21 l 14,-21 14,21 c 9,12 26,21 40,21 27,0 29,3 12,29 -9,15 -8,24 5,45 23,34 85,37 105,5 l 14,-21 14,21 c 9,12 26,21 40,21 28,0 28,1 13,33 -8,18 -8,30 0,45 10,18 8,21 -15,24 -15,2 -32,14 -41,30 -15,24 -15,28 0,52 11,16 27,26 42,26 29,0 29,1 14,34 -27,58 66,109 99,55 l 14,-21 14,21 c 23,32 75,29 96,-7 14,-24 15,-30 2,-55 -14,-26 -14,-27 13,-27 18,0 33,-8 41,-21 l 14,-21 14,21 c 9,12 26,21 40,21 28,0 28,1 13,34 -27,58 66,109 99,55 l 14,-21 14,21 c 10,13 26,21 45,21 31,0 36,9 17,28 -9,9 -9,18 0,37 16,34 16,33 -19,37 -20,2 -36,12 -46,30 -15,24 -15,28 0,52 12,18 26,26 47,26 32,0 37,9 18,28 -9,9 -9,18 0,37 16,35 16,35 -18,35 -19,0 -33,7 -40,20 -14,25 -27,25 -35,0 -5,-15 -15,-20 -40,-20 -43,0 -73,40 -56,76 10,22 8,24 -14,24 -19,0 -30,9 -42,34 -15,32 -15,37 1,60 10,16 26,26 41,26 28,0 30,3 13,29 -9,15 -8,24 5,45 22,34 76,36 95,5 l 14,-21 14,21 c 10,13 26,21 45,21 33,0 33,0 18,33 -8,18 -8,30 0,45 10,19 8,21 -20,24 -20,2 -36,12 -46,30 -15,24 -15,28 0,52 12,18 26,26 47,26 34,0 34,0 19,34 -27,58 66,109 99,55 l 14,-21 14,21 c 23,32 75,29 96,-7 14,-24 15,-30 2,-55 -14,-26 -14,-27 13,-27 18,0 33,-8 41,-21 l 14,-21 14,21 c 9,12 26,21 40,21 28,0 28,1 13,34 -27,58 66,109 99,55 l 14,-21 14,21 c 23,32 75,29 96,-7 14,-24 15,-30 2,-55 -15,-27 -14,-27 18,-27 25,0 37,-6 49,-26 15,-25 15,-29 0,-55 -12,-23 -23,-29 -49,-29 -32,0 -33,-1 -18,-21 13,-19 13,-25 0,-50 l -15,-29 h 33 c 23,0 37,-7 46,-21 l 14,-21 14,21 c 23,32 75,29 96,-6 14,-24 14,-29 1,-50 -15,-22 -14,-23 13,-23 19,0 34,-8 42,-21 l 14,-21 14,21 c 9,12 26,21 40,21 27,0 29,3 12,29 -9,15 -8,24 5,45 22,34 76,36 95,5 l 14,-21 14,21 c 9,12 26,21 40,21 28,0 28,1 13,33 -8,18 -8,30 0,45 10,18 8,21 -15,24 -15,2 -32,14 -41,30 -15,24 -15,28 0,52 11,16 27,26 42,26 29,0 29,1 14,34 -27,58 66,109 99,55 l 14,-21 14,21 c 23,33 85,29 106,-7 14,-24 15,-30 2,-55 -14,-26 -14,-27 13,-27 18,0 33,-8 41,-21 l 14,-21 14,21 c 9,12 26,21 40,21 28,0 28,1 13,34 -27,58 66,109 99,55 l 14,-21 14,21 c 9,12 26,21 40,21 26,0 31,9 12,28 -9,9 -9,18 0,37 16,34 16,33 -14,37 -15,2 -32,14 -41,30 -15,24 -15,28 0,52 11,16 27,26 42,26 27,0 32,9 13,28 -9,9 -9,18 0,37 16,35 16,35 -13,35 -14,0 -29,8 -35,20 -6,11 -15,20 -20,20 -5,0 -12,-9 -15,-20 -5,-15 -15,-20 -40,-20 -43,0 -73,40 -56,76 10,22 8,24 -14,24 -19,0 -30,9 -42,34 -15,32 -15,37 1,60 10,16 26,26 41,26 28,0 30,3 13,29 -9,15 -8,24 5,45 22,34 76,36 95,5 l 14,-21 14,21 c 9,12 26,21 40,21 28,0 28,1 13,33 -8,18 -8,30 0,45 10,18 8,21 -15,24 -15,2 -32,14 -41,30 -15,24 -15,28 0,52 11,16 27,26 42,26 29,0 29,1 14,33 -8,18 -8,30 0,46 11,19 9,21 -13,21 -15,0 -30,8 -36,20 -14,25 -27,25 -35,0 -5,-15 -15,-20 -40,-20 -43,0 -73,40 -56,77 15,32 15,33 -14,33 -14,0 -29,8 -35,20 -14,25 -27,25 -35,0 -4,-14 -15,-20 -36,-20 -29,0 -29,-1 -16,-27 12,-23 12,-30 -2,-55 -13,-23 -23,-28 -53,-28 -27,0 -40,5 -48,20 -6,11 -15,20 -20,20 -5,0 -12,-9 -15,-20 -5,-15 -15,-20 -40,-20 -43,0 -73,40 -56,77 15,32 15,31 -15,35 -15,2 -32,14 -41,30 -15,24 -15,28 0,52 11,16 27,26 42,26 27,0 32,9 13,28 -9,9 -9,18 0,37 16,35 16,35 -13,35 -14,0 -29,8 -35,20 -14,25 -27,25 -35,0 -5,-15 -15,-20 -40,-20 -43,0 -73,40 -56,76 10,22 8,24 -14,24 -19,0 -30,9 -42,34 -15,32 -15,37 1,60 10,16 26,26 41,26 28,0 30,3 13,29 -9,15 -8,24 5,45 22,34 76,36 95,5 l 14,-21 14,21 c 9,12 26,21 40,21 28,0 28,1 13,33 -8,18 -8,30 0,45 10,18 8,21 -15,24 -15,2 -32,14 -41,30 -15,24 -15,28 0,52 11,16 27,26 42,26 29,0 29,1 14,34 -27,58 66,109 99,55 l 14,-21 14,21 c 23,33 85,29 106,-7 14,-24 15,-30 2,-55 -14,-26 -14,-27 13,-27 18,0 33,-8 41,-21 l 14,-21 14,21 c 9,12 26,21 40,21 28,0 28,1 13,34 -27,58 66,109 99,55 l 14,-21 14,21 c 9,12 26,21 40,21 26,0 31,9 12,28 -9,9 -9,18 0,37 16,34 16,33 -14,37 -15,2 -32,14 -41,30 -15,24 -15,28 0,52 11,16 27,26 42,26 27,0 32,9 13,28 -9,9 -9,18 0,37 16,35 16,35 -13,35 -14,0 -29,8 -35,20 -6,11 -15,20 -20,20 -5,0 -12,-9 -15,-20 -5,-15 -15,-20 -40,-20 -43,0 -73,40 -56,76 10,22 8,24 -14,24 -19,0 -30,9 -42,34 -15,32 -15,37 1,60 10,16 26,26 41,26 28,0 30,3 13,29 -9,15 -8,24 5,45 22,34 76,36 95,5 l 14,-21 14,21 c 9,12 26,21 40,21 28,0 28,1 13,33 -8,18 -8,30 0,45 10,18 8,21 -15,24 -15,2 -32,14 -41,30 -15,24 -15,28 0,52 11,16 27,26 42,26 29,0 29,1 14,33 -8,18 -8,30 0,46 11,19 9,21 -13,21 -15,0 -30,8 -36,20 -6,11 -15,20 -20,20 -5,0 -12,-9 -15,-20 -5,-15 -15,-20 -40,-20 -43,0 -73,40 -56,77 15,32 15,33 -14,33 -14,0 -29,8 -35,20 -6,11 -15,20 -20,20 -5,0 -12,-9 -15,-20 -4,-14 -15,-20 -36,-20 -29,0 -29,-1 -16,-27 12,-23 12,-30 -2,-55 -13,-23 -23,-28 -53,-28 -27,0 -40,5 -48,20 -6,11 -15,20 -20,20 -5,0 -12,-9 -15,-20 -5,-15 -15,-20 -40,-20 -43,0 -73,40 -56,77 15,32 15,31 -15,35 -15,2 -32,14 -41,30 -15,24 -15,28 0,52 11,16 27,26 42,26 27,0 32,9 13,28 -9,9 -9,18 0,37 16,35 16,35 -13,35 -14,0 -29,8 -35,20 -6,11 -15,20 -20,20 -5,0 -12,-9 -15,-20 -5,-15 -15,-20 -40,-20 -43,0 -73,40 -56,76 10,22 8,24 -14,24 -16,0 -29,9 -39,27 l -14,28 -13,-28 c -9,-20 -19,-27 -41,-27 -28,0 -28,-1 -15,-21 13,-18 13,-24 -1,-50 -21,-36 -75,-41 -92,-9 -6,11 -15,20 -20,20 -5,0 -12,-9 -15,-20 -5,-15 -15,-20 -41,-20 -34,0 -35,0 -20,-27 12,-24 12,-30 -1,-50 -15,-22 -14,-23 19,-23 25,0 37,-6 49,-26 15,-25 15,-29 0,-55 -12,-23 -23,-29 -49,-29 -32,0 -32,0 -19,-27 12,-23 12,-30 -2,-55 -20,-35 -74,-40 -91,-8 -6,11 -15,20 -20,20 -5,0 -12,-9 -15,-20 -5,-15 -15,-20 -40,-20 -43,0 -73,40 -56,77 15,32 15,33 -14,33 -14,0 -29,8 -35,20 -6,11 -15,20 -20,20 -5,0 -12,-9 -15,-20 -4,-14 -15,-20 -36,-20 -29,0 -29,-1 -16,-27 12,-23 12,-30 -2,-55 -20,-35 -74,-40 -91,-8 -6,11 -15,20 -20,20 -5,0 -12,-9 -15,-20 -5,-15 -15,-20 -40,-20 -43,0 -73,40 -56,77 15,32 15,31 -20,35 -20,2 -36,12 -46,30 -15,24 -15,28 0,52 12,18 26,26 47,26 32,0 37,9 18,28 -9,9 -9,18 0,37 16,35 16,35 -18,35 -19,0 -33,7 -40,20 -6,11 -15,20 -20,20 -5,0 -12,-9 -15,-20 -5,-15 -15,-20 -40,-20 -43,0 -73,40 -56,76 10,22 8,24 -14,24 -19,0 -30,9 -42,34 -15,32 -15,37 1,60 10,16 26,26 41,26 28,0 30,3 13,29 -9,15 -8,24 5,45 22,34 76,36 95,5 l 14,-21 14,21 c 10,13 26,21 45,21 33,0 33,0 18,33 -8,18 -8,30 0,45 10,19 8,21 -20,24 -20,2 -36,12 -46,30 -15,24 -15,28 0,52 12,18 26,26 47,26 33,0 35,2 19,32 -8,15 -8,27 0,44 10,22 8,24 -19,24 -19,0 -33,7 -40,20 -6,11 -15,20 -20,20 -5,0 -12,-9 -15,-20 -5,-15 -15,-20 -40,-20 -43,0 -73,40 -56,77 15,32 15,33 -14,33 -14,0 -29,8 -35,20 -6,11 -15,20 -20,20 -5,0 -12,-9 -15,-20 -4,-14 -15,-20 -36,-20 -29,0 -29,-1 -16,-27 12,-23 12,-30 -2,-55 -20,-35 -74,-40 -91,-8 -6,11 -15,20 -20,20 -5,0 -12,-9 -15,-20 -5,-15 -15,-20 -40,-20 -43,0 -73,40 -56,77 15,32 15,31 -15,35 -15,2 -32,14 -41,30 -15,24 -15,28 0,52 11,16 27,26 42,26 27,0 32,9 13,28 -9,9 -9,18 0,37 16,35 16,35 -13,35 -14,0 -29,8 -35,20 -6,11 -15,20 -20,20 -5,0 -12,-9 -15,-20 -5,-15 -15,-20 -45,-20 -48,0 -79,38 -61,76 10,22 8,24 -14,24 -16,0 -29,9 -39,27 l -14,28 z"
       id="path62"
       style="fill:url(#linearGradient1032);fill-opacity:1" />
  </g>
</svg>
